<?xml version="1.0" standalone="no"?><svg xmlns="http://www.w3.org/2000/svg" viewBox="0 0 1440 320"><path fill="#740707" fill-opacity="0.9" d="M0,64L0,64L110.8,64L110.8,32L221.5,32L221.5,160L332.3,160L332.3,160L443.1,160L443.1,96L553.8,96L553.8,128L664.6,128L664.6,288L775.4,288L775.4,64L886.2,64L886.2,224L996.9,224L996.9,0L1107.7,0L1107.7,96L1218.5,96L1218.5,192L1329.2,192L1329.2,224L1440,224L1440,320L1329.2,320L1329.2,320L1218.5,320L1218.5,320L1107.7,320L1107.7,320L996.9,320L996.9,320L886.2,320L886.2,320L775.4,320L775.4,320L664.6,320L664.6,320L553.8,320L553.8,320L443.1,320L443.1,320L332.3,320L332.3,320L221.5,320L221.5,320L110.8,320L110.8,320L0,320L0,320Z"></path></svg>